M48
;Layer_Color=9474304
;FILE_FORMAT=4:4
METRIC,LZ
;TYPE=PLATED
T01F00S00C0.7112
T02F00S00C0.8000
T03F00S00C0.8300
T04F00S00C0.8900
T05F00S00C1.0000
T07F00S00C3.2000
%
T01
X0128143Y0032639
X01636844Y00498924
X016383Y005969
X0152019Y0048514
X0128143Y0050038
X0124968Y0044196
X0138049Y0078232
X0140081Y0079883
X0128143Y0089154
X0130048Y0097282
X0119253Y0109093
X0157607Y010668
X0160274Y0101092
X01630925
X016383Y0091821
Y0083058
T02
X0118618Y0033544
Y0035544
X0173355Y0047117
Y0049117
Y0056801
Y0058801
X0118618Y009017
Y009217
X0173355Y0091805
Y0089805
Y0082169
Y0080169
T03
X0118618Y004318
Y004518
Y004718
Y0054864
Y0056864
Y0058864
Y0066675
Y0068675
Y0070675
Y0078391
Y0080391
Y0082391
T04
X0173355Y0033465
Y0035465
Y0037465
X0173228Y0039481
X0173355Y0066453
Y0068453
Y0070453
X0173228Y0072469
X0173355Y0099441
Y0101441
Y0103441
X0173228Y0105457
T05
X0134239Y0032766
Y0035306
Y0037846
X0141859
Y0035306
Y0032766
Y0040386
Y0042926
Y0045466
Y0048006
Y0050546
Y0053086
Y0055626
Y0058166
Y0060706
Y0063246
Y0065786
X0134239
Y0063246
Y0060706
Y0058166
Y0055626
Y0053086
Y0050546
Y0048006
Y0045466
Y0042926
Y0040386
T07
X0156Y0043
Y0087625
X01295Y0079475
M30
