G04*
G04 #@! TF.GenerationSoftware,Altium Limited,Altium Designer,23.7.1 (13)*
G04*
G04 Layer_Color=16711935*
%FSLAX44Y44*%
%MOMM*%
G71*
G04*
G04 #@! TF.SameCoordinates,C51D150B-4951-4E74-93B8-B1EDFD191E36*
G04*
G04*
G04 #@! TF.FilePolarity,Negative*
G04*
G01*
G75*
%ADD38R,1.5112X1.5112*%
%ADD39C,1.5112*%
%ADD40C,1.7272*%
%ADD41C,1.7112*%
%ADD42R,1.7112X1.7112*%
%ADD43O,1.7112X3.2192*%
%ADD44O,3.2192X1.7112*%
%ADD45R,1.4112X1.4112*%
%ADD46C,1.4112*%
%ADD47C,1.4732*%
D38*
X1186180Y921700D02*
D03*
Y588640D02*
D03*
Y355440D02*
D03*
X1733550Y898050D02*
D03*
X1186180Y471800D02*
D03*
Y823910D02*
D03*
Y706750D02*
D03*
X1733550Y568010D02*
D03*
Y471170D02*
D03*
Y801690D02*
D03*
D39*
X1186180Y901700D02*
D03*
Y548640D02*
D03*
Y568640D02*
D03*
Y335440D02*
D03*
X1733550Y918050D02*
D03*
X1186180Y451800D02*
D03*
Y431800D02*
D03*
Y803910D02*
D03*
Y783910D02*
D03*
Y686750D02*
D03*
Y666750D02*
D03*
X1733550Y588010D02*
D03*
Y491170D02*
D03*
Y821690D02*
D03*
D40*
X1560000Y876250D02*
D03*
X1295000Y794750D02*
D03*
X1560000Y430000D02*
D03*
D41*
X1342390Y327660D02*
D03*
Y632460D02*
D03*
Y607060D02*
D03*
Y581660D02*
D03*
Y556260D02*
D03*
Y530860D02*
D03*
Y505460D02*
D03*
Y480060D02*
D03*
Y454660D02*
D03*
Y429260D02*
D03*
Y403860D02*
D03*
Y378460D02*
D03*
Y353060D02*
D03*
X1418590Y327660D02*
D03*
Y353060D02*
D03*
Y378460D02*
D03*
Y403860D02*
D03*
Y429260D02*
D03*
Y454660D02*
D03*
Y480060D02*
D03*
Y505460D02*
D03*
Y530860D02*
D03*
Y556260D02*
D03*
Y581660D02*
D03*
Y607060D02*
D03*
Y632460D02*
D03*
Y657860D02*
D03*
D42*
X1342390D02*
D03*
D43*
X1408420Y1078790D02*
D03*
D44*
X1455420Y1108790D02*
D03*
Y1048790D02*
D03*
D45*
X1733550Y994410D02*
D03*
Y664530D02*
D03*
Y334650D02*
D03*
D46*
Y1014410D02*
D03*
Y1034410D02*
D03*
X1732280Y1054570D02*
D03*
X1733550Y684530D02*
D03*
Y704530D02*
D03*
X1732280Y724690D02*
D03*
X1733550Y354650D02*
D03*
Y374650D02*
D03*
X1732280Y394810D02*
D03*
D47*
X1249680Y441960D02*
D03*
X1380490Y782320D02*
D03*
X1400810Y798830D02*
D03*
X1520190Y485140D02*
D03*
X1636844Y498924D02*
D03*
X1281430Y326390D02*
D03*
Y891540D02*
D03*
X1638300Y918210D02*
D03*
Y596900D02*
D03*
Y830580D02*
D03*
X1630925Y1010920D02*
D03*
X1281430Y500380D02*
D03*
X1602740Y1010920D02*
D03*
X1300480Y972820D02*
D03*
X1192530Y1090930D02*
D03*
X1576070Y1066800D02*
D03*
M02*
