G04*
G04 #@! TF.GenerationSoftware,Altium Limited,Altium Designer,23.7.1 (13)*
G04*
G04 Layer_Physical_Order=2*
G04 Layer_Color=16711680*
%FSLAX44Y44*%
%MOMM*%
G71*
G04*
G04 #@! TF.SameCoordinates,C51D150B-4951-4E74-93B8-B1EDFD191E36*
G04*
G04*
G04 #@! TF.FilePolarity,Positive*
G04*
G01*
G75*
%ADD50C,0.6096*%
%ADD51C,0.4064*%
%ADD54R,1.3080X1.3080*%
%ADD55C,1.3080*%
%ADD56C,1.5240*%
%ADD57C,1.5080*%
%ADD58R,1.5080X1.5080*%
%ADD59O,1.5080X3.0160*%
%ADD60O,3.0160X1.5080*%
%ADD61R,1.2080X1.2080*%
%ADD62C,1.2080*%
%ADD63C,1.2700*%
G36*
X1689106Y1162044D02*
X1691377Y1162044D01*
X1695850Y1161248D01*
X1700115Y1159680D01*
X1704038Y1157390D01*
X1707500Y1154448D01*
X1710392Y1150944D01*
X1712626Y1146988D01*
X1714133Y1142702D01*
X1714499Y1140460D01*
X1714499D01*
X1714500Y1140459D01*
Y1136650D01*
X1714568Y1134574D01*
X1715110Y1130456D01*
X1716185Y1126445D01*
X1717774Y1122608D01*
X1719850Y1119011D01*
X1722379Y1115716D01*
X1725315Y1112779D01*
X1728610Y1110251D01*
X1732207Y1108174D01*
X1736044Y1106585D01*
X1740056Y1105510D01*
X1744173Y1104968D01*
X1746250Y1104900D01*
X1746250Y1104900D01*
X1748752Y1104900D01*
X1753659Y1103924D01*
X1758282Y1102009D01*
X1762442Y1099229D01*
X1765979Y1095692D01*
X1768759Y1091531D01*
X1770674Y1086909D01*
X1771650Y1082002D01*
X1771650Y1079500D01*
X1771650Y1079500D01*
X1771650Y1079500D01*
X1771650Y302260D01*
X1771650Y301086D01*
X1771397Y298752D01*
X1770893Y296459D01*
X1770145Y294234D01*
X1769161Y292102D01*
X1767953Y290089D01*
X1766535Y288218D01*
X1764923Y286511D01*
X1762582Y284515D01*
X1759292Y282600D01*
X1755715Y281299D01*
X1751963Y280654D01*
X1750060Y280670D01*
X1170940D01*
X1169026Y281228D01*
X1165369Y282814D01*
X1161938Y284846D01*
X1158789Y287290D01*
X1155970Y290109D01*
X1153525Y293258D01*
X1151494Y296689D01*
X1149908Y300346D01*
X1149350Y302260D01*
X1149350Y947420D01*
X1149283Y948563D01*
X1149630Y950827D01*
X1150444Y952969D01*
X1151689Y954892D01*
X1153308Y956511D01*
X1155231Y957756D01*
X1157373Y958570D01*
X1159637Y958917D01*
X1160780Y958850D01*
X1160780Y958850D01*
X1167130Y958850D01*
X1169413Y959944D01*
X1173609Y962765D01*
X1177185Y966341D01*
X1180006Y970537D01*
X1181100Y972820D01*
X1181100Y1140460D01*
X1181726Y1142339D01*
X1183405Y1145927D01*
X1185488Y1149296D01*
X1187946Y1152402D01*
X1190747Y1155203D01*
X1193853Y1157662D01*
X1197223Y1159744D01*
X1200811Y1161423D01*
X1202690Y1162049D01*
Y1162049D01*
X1447800Y1162050D01*
X1689106Y1162044D01*
D02*
G37*
%LPC*%
G36*
X1462960Y1118957D02*
X1456690D01*
Y1110060D01*
X1472960D01*
X1472780Y1111421D01*
X1471765Y1113874D01*
X1470149Y1115979D01*
X1468044Y1117595D01*
X1465591Y1118611D01*
X1462960Y1118957D01*
D02*
G37*
G36*
X1454150D02*
X1447880D01*
X1445249Y1118611D01*
X1442796Y1117595D01*
X1440691Y1115979D01*
X1439075Y1113874D01*
X1438060Y1111421D01*
X1437880Y1110060D01*
X1454150D01*
Y1118957D01*
D02*
G37*
G36*
X1472960Y1107520D02*
X1456690D01*
Y1098623D01*
X1462960D01*
X1465591Y1098969D01*
X1468044Y1099985D01*
X1470149Y1101601D01*
X1471765Y1103707D01*
X1472780Y1106159D01*
X1472960Y1107520D01*
D02*
G37*
G36*
X1454150D02*
X1437880D01*
X1438060Y1106159D01*
X1439075Y1103707D01*
X1440691Y1101601D01*
X1442796Y1099985D01*
X1445249Y1098969D01*
X1447880Y1098623D01*
X1454150D01*
Y1107520D01*
D02*
G37*
G36*
X1193800Y1099793D02*
Y1092200D01*
X1201393D01*
X1200814Y1094361D01*
X1199644Y1096389D01*
X1197989Y1098044D01*
X1195961Y1099214D01*
X1193800Y1099793D01*
D02*
G37*
G36*
X1191260D02*
X1189099Y1099214D01*
X1187071Y1098044D01*
X1185416Y1096389D01*
X1184246Y1094361D01*
X1183667Y1092200D01*
X1191260D01*
Y1099793D01*
D02*
G37*
G36*
X1201393Y1089660D02*
X1193800D01*
Y1082067D01*
X1195961Y1082646D01*
X1197989Y1083816D01*
X1199644Y1085471D01*
X1200814Y1087499D01*
X1201393Y1089660D01*
D02*
G37*
G36*
X1191260D02*
X1183667D01*
X1184246Y1087499D01*
X1185416Y1085471D01*
X1187071Y1083816D01*
X1189099Y1082646D01*
X1191260Y1082067D01*
Y1089660D01*
D02*
G37*
G36*
X1409690Y1096330D02*
Y1080060D01*
X1418587D01*
Y1086330D01*
X1418241Y1088961D01*
X1417225Y1091413D01*
X1415609Y1093519D01*
X1413504Y1095135D01*
X1411051Y1096151D01*
X1409690Y1096330D01*
D02*
G37*
G36*
X1407150Y1096330D02*
X1405789Y1096151D01*
X1403336Y1095135D01*
X1401231Y1093519D01*
X1399615Y1091413D01*
X1398600Y1088961D01*
X1398253Y1086330D01*
Y1080060D01*
X1407150D01*
Y1096330D01*
D02*
G37*
G36*
X1577340Y1075663D02*
Y1068070D01*
X1584933D01*
X1584354Y1070231D01*
X1583184Y1072259D01*
X1581529Y1073914D01*
X1579501Y1075084D01*
X1577340Y1075663D01*
D02*
G37*
G36*
X1574800D02*
X1572639Y1075084D01*
X1570611Y1073914D01*
X1568956Y1072259D01*
X1567786Y1070231D01*
X1567207Y1068070D01*
X1574800D01*
Y1075663D01*
D02*
G37*
G36*
X1418587Y1077520D02*
X1409690D01*
Y1061250D01*
X1411051Y1061429D01*
X1413504Y1062445D01*
X1415609Y1064061D01*
X1417225Y1066167D01*
X1418241Y1068619D01*
X1418587Y1071250D01*
Y1077520D01*
D02*
G37*
G36*
X1407150D02*
X1398253D01*
Y1071250D01*
X1398600Y1068619D01*
X1399615Y1066167D01*
X1401231Y1064061D01*
X1403336Y1062445D01*
X1405789Y1061429D01*
X1407150Y1061250D01*
Y1077520D01*
D02*
G37*
G36*
X1584933Y1065530D02*
X1577340D01*
Y1057937D01*
X1579501Y1058516D01*
X1581529Y1059686D01*
X1583184Y1061341D01*
X1584354Y1063369D01*
X1584933Y1065530D01*
D02*
G37*
G36*
X1574800D02*
X1567207D01*
X1567786Y1063369D01*
X1568956Y1061341D01*
X1570611Y1059686D01*
X1572639Y1058516D01*
X1574800Y1057937D01*
Y1065530D01*
D02*
G37*
G36*
X1733550Y1063112D02*
Y1055840D01*
X1740822D01*
X1740275Y1057882D01*
X1739146Y1059838D01*
X1737548Y1061436D01*
X1735592Y1062565D01*
X1733550Y1063112D01*
D02*
G37*
G36*
X1731010D02*
X1728968Y1062565D01*
X1727012Y1061436D01*
X1725414Y1059838D01*
X1724285Y1057882D01*
X1723738Y1055840D01*
X1731010D01*
Y1063112D01*
D02*
G37*
G36*
X1740822Y1053300D02*
X1733550D01*
Y1046028D01*
X1735592Y1046575D01*
X1737548Y1047704D01*
X1739146Y1049302D01*
X1740275Y1051258D01*
X1740822Y1053300D01*
D02*
G37*
G36*
X1731010D02*
X1723738D01*
X1724285Y1051258D01*
X1725414Y1049302D01*
X1727012Y1047704D01*
X1728968Y1046575D01*
X1731010Y1046028D01*
Y1053300D01*
D02*
G37*
G36*
X1462960Y1058957D02*
X1447880D01*
X1445249Y1058611D01*
X1442796Y1057595D01*
X1440691Y1055979D01*
X1439075Y1053874D01*
X1438060Y1051421D01*
X1437713Y1048790D01*
X1438060Y1046159D01*
X1439075Y1043707D01*
X1440691Y1041601D01*
X1442796Y1039985D01*
X1445249Y1038969D01*
X1447880Y1038623D01*
X1462960D01*
X1465591Y1038969D01*
X1468044Y1039985D01*
X1470149Y1041601D01*
X1471765Y1043707D01*
X1472780Y1046159D01*
X1473127Y1048790D01*
X1472780Y1051421D01*
X1471765Y1053874D01*
X1470149Y1055979D01*
X1468044Y1057595D01*
X1465591Y1058611D01*
X1462960Y1058957D01*
D02*
G37*
G36*
X1734680Y1042990D02*
X1732420D01*
X1730238Y1042405D01*
X1728282Y1041276D01*
X1726684Y1039678D01*
X1725555Y1037722D01*
X1724970Y1035540D01*
Y1033280D01*
X1725555Y1031098D01*
X1726684Y1029142D01*
X1728282Y1027544D01*
X1730238Y1026415D01*
X1732420Y1025830D01*
X1734680D01*
X1736862Y1026415D01*
X1738818Y1027544D01*
X1740416Y1029142D01*
X1741545Y1031098D01*
X1742130Y1033280D01*
Y1035540D01*
X1741545Y1037722D01*
X1740416Y1039678D01*
X1738818Y1041276D01*
X1736862Y1042405D01*
X1734680Y1042990D01*
D02*
G37*
G36*
X1604010Y1019783D02*
Y1012190D01*
X1611603D01*
X1611024Y1014351D01*
X1609854Y1016379D01*
X1608199Y1018034D01*
X1606171Y1019204D01*
X1604010Y1019783D01*
D02*
G37*
G36*
X1601470D02*
X1599309Y1019204D01*
X1597281Y1018034D01*
X1595626Y1016379D01*
X1594456Y1014351D01*
X1593877Y1012190D01*
X1601470D01*
Y1019783D01*
D02*
G37*
G36*
X1734680Y1022990D02*
X1732420D01*
X1730238Y1022405D01*
X1728282Y1021276D01*
X1726684Y1019678D01*
X1725555Y1017722D01*
X1724970Y1015540D01*
Y1013280D01*
X1725555Y1011098D01*
X1726684Y1009142D01*
X1728282Y1007544D01*
X1730238Y1006415D01*
X1732420Y1005830D01*
X1734680D01*
X1736862Y1006415D01*
X1738818Y1007544D01*
X1740416Y1009142D01*
X1741545Y1011098D01*
X1742130Y1013280D01*
Y1015540D01*
X1741545Y1017722D01*
X1740416Y1019678D01*
X1738818Y1021276D01*
X1736862Y1022405D01*
X1734680Y1022990D01*
D02*
G37*
G36*
X1611603Y1009650D02*
X1604010D01*
Y1002057D01*
X1606171Y1002636D01*
X1608199Y1003806D01*
X1609854Y1005461D01*
X1611024Y1007489D01*
X1611603Y1009650D01*
D02*
G37*
G36*
X1601470D02*
X1593877D01*
X1594456Y1007489D01*
X1595626Y1005461D01*
X1597281Y1003806D01*
X1599309Y1002636D01*
X1601470Y1002057D01*
Y1009650D01*
D02*
G37*
G36*
X1632095Y1019810D02*
X1629754D01*
X1627493Y1019204D01*
X1625466Y1018034D01*
X1623811Y1016379D01*
X1622640Y1014351D01*
X1622034Y1012090D01*
Y1009750D01*
X1622640Y1007489D01*
X1623811Y1005461D01*
X1625466Y1003806D01*
X1627493Y1002636D01*
X1629754Y1002030D01*
X1632095D01*
X1634356Y1002636D01*
X1636383Y1003806D01*
X1637799Y1005222D01*
X1654990D01*
X1669831Y990381D01*
X1671680Y989146D01*
X1673860Y988712D01*
X1724970D01*
Y985830D01*
X1742130D01*
Y1002990D01*
X1724970D01*
Y1000107D01*
X1676220D01*
X1661379Y1014949D01*
X1659530Y1016184D01*
X1657350Y1016618D01*
X1637799D01*
X1636383Y1018034D01*
X1634356Y1019204D01*
X1632095Y1019810D01*
D02*
G37*
G36*
X1301750Y981683D02*
Y974090D01*
X1309343D01*
X1308764Y976251D01*
X1307594Y978279D01*
X1305939Y979934D01*
X1303911Y981104D01*
X1301750Y981683D01*
D02*
G37*
G36*
X1299210D02*
X1297049Y981104D01*
X1295021Y979934D01*
X1293366Y978279D01*
X1292196Y976251D01*
X1291617Y974090D01*
X1299210D01*
Y981683D01*
D02*
G37*
G36*
X1309343Y971550D02*
X1301750D01*
Y963957D01*
X1303911Y964536D01*
X1305939Y965706D01*
X1307594Y967361D01*
X1308764Y969389D01*
X1309343Y971550D01*
D02*
G37*
G36*
X1299210D02*
X1291617D01*
X1292196Y969389D01*
X1293366Y967361D01*
X1295021Y965706D01*
X1297049Y964536D01*
X1299210Y963957D01*
Y971550D01*
D02*
G37*
G36*
X1639570Y927073D02*
Y919480D01*
X1647163D01*
X1646584Y921641D01*
X1645414Y923669D01*
X1643759Y925324D01*
X1641731Y926494D01*
X1639570Y927073D01*
D02*
G37*
G36*
X1637030D02*
X1634869Y926494D01*
X1632841Y925324D01*
X1631186Y923669D01*
X1630016Y921641D01*
X1629437Y919480D01*
X1637030D01*
Y927073D01*
D02*
G37*
G36*
X1195260Y930780D02*
X1177100D01*
Y912620D01*
X1195260D01*
Y930780D01*
D02*
G37*
G36*
X1647163Y916940D02*
X1639570D01*
Y909347D01*
X1641731Y909926D01*
X1643759Y911096D01*
X1645414Y912751D01*
X1646584Y914779D01*
X1647163Y916940D01*
D02*
G37*
G36*
X1637030D02*
X1629437D01*
X1630016Y914779D01*
X1631186Y912751D01*
X1632841Y911096D01*
X1634869Y909926D01*
X1637030Y909347D01*
Y916940D01*
D02*
G37*
G36*
X1734745Y927130D02*
X1732355D01*
X1730045Y926511D01*
X1727975Y925316D01*
X1726284Y923625D01*
X1725757Y922712D01*
X1720272D01*
X1718488Y922357D01*
X1716975Y921346D01*
X1705801Y910172D01*
X1677988D01*
X1676204Y909817D01*
X1674691Y908806D01*
X1603667Y837782D01*
X1484630D01*
X1482846Y837427D01*
X1481334Y836416D01*
X1443234Y798316D01*
X1442223Y796804D01*
X1441868Y795020D01*
Y640822D01*
X1438168Y637122D01*
X1427538D01*
X1426656Y638649D01*
X1424779Y640526D01*
X1422481Y641853D01*
X1419917Y642540D01*
X1417263D01*
X1414699Y641853D01*
X1412401Y640526D01*
X1410524Y638649D01*
X1409197Y636351D01*
X1408510Y633787D01*
Y631133D01*
X1409197Y628569D01*
X1410524Y626271D01*
X1412401Y624394D01*
X1414699Y623067D01*
X1417263Y622380D01*
X1419917D01*
X1422481Y623067D01*
X1424779Y624394D01*
X1426656Y626271D01*
X1427538Y627798D01*
X1440099D01*
X1441883Y628153D01*
X1443396Y629164D01*
X1449826Y635594D01*
X1450837Y637107D01*
X1451192Y638891D01*
Y793089D01*
X1486561Y828458D01*
X1605598D01*
X1607381Y828813D01*
X1608894Y829824D01*
X1679918Y900848D01*
X1707732D01*
X1709516Y901203D01*
X1711028Y902214D01*
X1722202Y913388D01*
X1725757D01*
X1726284Y912475D01*
X1727975Y910784D01*
X1730045Y909589D01*
X1732355Y908970D01*
X1734745D01*
X1737055Y909589D01*
X1739125Y910784D01*
X1740816Y912475D01*
X1742011Y914545D01*
X1742630Y916855D01*
Y919245D01*
X1742011Y921555D01*
X1740816Y923625D01*
X1739125Y925316D01*
X1737055Y926511D01*
X1734745Y927130D01*
D02*
G37*
G36*
X1282700Y900403D02*
Y892810D01*
X1290293D01*
X1289714Y894971D01*
X1288544Y896999D01*
X1286889Y898654D01*
X1284861Y899824D01*
X1282700Y900403D01*
D02*
G37*
G36*
X1280160D02*
X1277999Y899824D01*
X1275971Y898654D01*
X1274316Y896999D01*
X1273146Y894971D01*
X1272567Y892810D01*
X1280160D01*
Y900403D01*
D02*
G37*
G36*
X1742630Y907130D02*
X1724470D01*
Y888970D01*
X1742630D01*
Y907130D01*
D02*
G37*
G36*
X1290293Y890270D02*
X1282700D01*
Y882677D01*
X1284861Y883256D01*
X1286889Y884426D01*
X1288544Y886081D01*
X1289714Y888109D01*
X1290293Y890270D01*
D02*
G37*
G36*
X1280160D02*
X1272567D01*
X1273146Y888109D01*
X1274316Y886081D01*
X1275971Y884426D01*
X1277999Y883256D01*
X1280160Y882677D01*
Y890270D01*
D02*
G37*
G36*
X1575000Y900108D02*
X1545000D01*
X1543513Y899812D01*
X1542253Y898970D01*
X1537253Y893970D01*
X1536411Y892710D01*
X1536115Y891223D01*
Y861223D01*
X1536411Y859737D01*
X1537253Y858476D01*
X1542253Y853476D01*
X1543513Y852634D01*
X1545000Y852339D01*
X1575000D01*
X1576487Y852634D01*
X1577747Y853476D01*
X1582747Y858476D01*
X1583589Y859737D01*
X1583885Y861223D01*
Y891223D01*
X1583589Y892710D01*
X1582747Y893970D01*
X1577747Y898970D01*
X1576487Y899812D01*
X1575000Y900108D01*
D02*
G37*
G36*
X1639570Y839443D02*
Y831850D01*
X1647163D01*
X1646584Y834011D01*
X1645414Y836039D01*
X1643759Y837694D01*
X1641731Y838864D01*
X1639570Y839443D01*
D02*
G37*
G36*
X1637030D02*
X1634869Y838864D01*
X1632841Y837694D01*
X1631186Y836039D01*
X1630016Y834011D01*
X1629437Y831850D01*
X1637030D01*
Y839443D01*
D02*
G37*
G36*
X1647163Y829310D02*
X1639570D01*
Y821717D01*
X1641731Y822296D01*
X1643759Y823466D01*
X1645414Y825121D01*
X1646584Y827149D01*
X1647163Y829310D01*
D02*
G37*
G36*
X1637030D02*
X1629437D01*
X1630016Y827149D01*
X1631186Y825121D01*
X1632841Y823466D01*
X1634869Y822296D01*
X1637030Y821717D01*
Y829310D01*
D02*
G37*
G36*
X1195260Y832990D02*
X1177100D01*
Y814830D01*
X1195260D01*
Y832990D01*
D02*
G37*
G36*
X1734745Y830770D02*
X1732355D01*
X1730045Y830151D01*
X1727975Y828956D01*
X1726284Y827265D01*
X1725757Y826352D01*
X1722120D01*
X1720336Y825997D01*
X1718824Y824986D01*
X1706219Y812382D01*
X1613561D01*
X1603496Y822446D01*
X1601984Y823457D01*
X1600200Y823812D01*
X1489710D01*
X1487926Y823457D01*
X1486414Y822446D01*
X1457020Y793052D01*
X1456010Y791540D01*
X1455655Y789756D01*
Y634207D01*
X1433169Y611722D01*
X1427538D01*
X1426656Y613249D01*
X1424779Y615126D01*
X1422481Y616453D01*
X1419917Y617140D01*
X1417263D01*
X1414699Y616453D01*
X1412401Y615126D01*
X1410524Y613249D01*
X1409197Y610951D01*
X1408510Y608387D01*
Y605733D01*
X1409197Y603169D01*
X1410524Y600871D01*
X1412401Y598994D01*
X1414699Y597667D01*
X1417263Y596980D01*
X1419917D01*
X1422481Y597667D01*
X1424779Y598994D01*
X1426656Y600871D01*
X1427538Y602398D01*
X1435100D01*
X1436884Y602753D01*
X1438396Y603764D01*
X1463613Y628980D01*
X1464623Y630492D01*
X1464978Y632276D01*
Y787825D01*
X1491641Y814488D01*
X1598269D01*
X1608334Y804424D01*
X1609846Y803413D01*
X1611630Y803058D01*
X1708150D01*
X1709934Y803413D01*
X1711446Y804424D01*
X1724051Y817028D01*
X1725757D01*
X1726284Y816115D01*
X1727975Y814424D01*
X1730045Y813229D01*
X1732355Y812610D01*
X1734745D01*
X1737055Y813229D01*
X1739125Y814424D01*
X1740816Y816115D01*
X1742011Y818185D01*
X1742630Y820495D01*
Y822885D01*
X1742011Y825195D01*
X1740816Y827265D01*
X1739125Y828956D01*
X1737055Y830151D01*
X1734745Y830770D01*
D02*
G37*
G36*
X1187375Y812990D02*
X1184985D01*
X1182675Y812371D01*
X1180605Y811176D01*
X1178914Y809485D01*
X1177719Y807415D01*
X1177100Y805105D01*
Y802715D01*
X1177719Y800405D01*
X1178914Y798335D01*
X1180605Y796644D01*
X1182675Y795449D01*
X1184985Y794830D01*
X1187375D01*
X1189685Y795449D01*
X1191755Y796644D01*
X1193446Y798335D01*
X1194641Y800405D01*
X1195260Y802715D01*
Y805105D01*
X1194641Y807415D01*
X1193446Y809485D01*
X1191755Y811176D01*
X1189685Y812371D01*
X1187375Y812990D01*
D02*
G37*
G36*
X1742630Y810770D02*
X1724470D01*
Y792610D01*
X1742630D01*
Y810770D01*
D02*
G37*
G36*
X1187450Y792970D02*
Y785180D01*
X1195240D01*
X1194641Y787415D01*
X1193446Y789485D01*
X1191755Y791176D01*
X1189685Y792371D01*
X1187450Y792970D01*
D02*
G37*
G36*
X1184910D02*
X1182675Y792371D01*
X1180605Y791176D01*
X1178914Y789485D01*
X1177719Y787415D01*
X1177120Y785180D01*
X1184910D01*
Y792970D01*
D02*
G37*
G36*
X1195240Y782640D02*
X1187450D01*
Y774850D01*
X1189685Y775449D01*
X1191755Y776644D01*
X1193446Y778335D01*
X1194641Y780405D01*
X1195240Y782640D01*
D02*
G37*
G36*
X1184910D02*
X1177120D01*
X1177719Y780405D01*
X1178914Y778335D01*
X1180605Y776644D01*
X1182675Y775449D01*
X1184910Y774850D01*
Y782640D01*
D02*
G37*
G36*
X1381660Y791210D02*
X1379320D01*
X1377059Y790604D01*
X1375031Y789434D01*
X1373376Y787779D01*
X1372206Y785751D01*
X1371600Y783490D01*
Y781150D01*
X1371838Y780261D01*
X1285754Y694176D01*
X1284743Y692664D01*
X1284388Y690880D01*
Y640526D01*
X1284743Y638742D01*
X1285754Y637230D01*
X1319220Y603764D01*
X1320732Y602753D01*
X1322516Y602398D01*
X1333442D01*
X1334324Y600871D01*
X1336201Y598994D01*
X1338499Y597667D01*
X1341063Y596980D01*
X1343717D01*
X1346281Y597667D01*
X1348579Y598994D01*
X1350456Y600871D01*
X1351783Y603169D01*
X1352470Y605733D01*
Y608387D01*
X1351783Y610951D01*
X1350456Y613249D01*
X1348579Y615126D01*
X1346281Y616453D01*
X1343717Y617140D01*
X1341063D01*
X1338499Y616453D01*
X1336201Y615126D01*
X1334324Y613249D01*
X1333442Y611722D01*
X1324447D01*
X1293712Y642457D01*
Y688949D01*
X1378431Y773668D01*
X1379320Y773430D01*
X1381660D01*
X1383921Y774036D01*
X1385949Y775206D01*
X1387604Y776861D01*
X1388774Y778889D01*
X1389380Y781150D01*
Y783490D01*
X1388774Y785751D01*
X1387604Y787779D01*
X1385949Y789434D01*
X1383921Y790604D01*
X1381660Y791210D01*
D02*
G37*
G36*
X1310000Y818608D02*
X1280000D01*
X1278513Y818312D01*
X1277253Y817470D01*
X1272253Y812470D01*
X1271411Y811210D01*
X1271115Y809723D01*
Y779723D01*
X1271411Y778237D01*
X1272253Y776976D01*
X1277253Y771976D01*
X1278513Y771134D01*
X1280000Y770839D01*
X1310000D01*
X1311487Y771134D01*
X1312747Y771976D01*
X1317747Y776976D01*
X1318589Y778237D01*
X1318885Y779723D01*
Y809723D01*
X1318589Y811210D01*
X1317747Y812470D01*
X1312747Y817470D01*
X1311487Y818312D01*
X1310000Y818608D01*
D02*
G37*
G36*
X1733550Y733232D02*
Y725960D01*
X1740822D01*
X1740275Y728002D01*
X1739146Y729958D01*
X1737548Y731556D01*
X1735592Y732685D01*
X1733550Y733232D01*
D02*
G37*
G36*
X1731010D02*
X1728968Y732685D01*
X1727012Y731556D01*
X1725414Y729958D01*
X1724285Y728002D01*
X1723738Y725960D01*
X1731010D01*
Y733232D01*
D02*
G37*
G36*
X1740822Y723420D02*
X1733550D01*
Y716148D01*
X1735592Y716695D01*
X1737548Y717824D01*
X1739146Y719422D01*
X1740275Y721378D01*
X1740822Y723420D01*
D02*
G37*
G36*
X1731010D02*
X1723738D01*
X1724285Y721378D01*
X1725414Y719422D01*
X1727012Y717824D01*
X1728968Y716695D01*
X1731010Y716148D01*
Y723420D01*
D02*
G37*
G36*
X1195260Y715830D02*
X1177100D01*
Y697670D01*
X1195260D01*
Y715830D01*
D02*
G37*
G36*
X1734680Y713110D02*
X1732420D01*
X1730238Y712525D01*
X1728282Y711396D01*
X1726684Y709798D01*
X1725555Y707842D01*
X1724970Y705660D01*
Y703400D01*
X1725555Y701218D01*
X1726684Y699262D01*
X1728282Y697664D01*
X1730238Y696535D01*
X1732420Y695950D01*
X1734680D01*
X1736862Y696535D01*
X1738818Y697664D01*
X1740416Y699262D01*
X1741545Y701218D01*
X1742130Y703400D01*
Y705660D01*
X1741545Y707842D01*
X1740416Y709798D01*
X1738818Y711396D01*
X1736862Y712525D01*
X1734680Y713110D01*
D02*
G37*
G36*
X1187375Y695830D02*
X1184985D01*
X1182675Y695211D01*
X1180605Y694016D01*
X1178914Y692325D01*
X1177719Y690255D01*
X1177100Y687945D01*
Y685555D01*
X1177719Y683245D01*
X1178914Y681175D01*
X1180605Y679484D01*
X1182675Y678289D01*
X1184985Y677670D01*
X1187375D01*
X1189685Y678289D01*
X1191755Y679484D01*
X1193446Y681175D01*
X1194641Y683245D01*
X1195260Y685555D01*
Y687945D01*
X1194641Y690255D01*
X1193446Y692325D01*
X1191755Y694016D01*
X1189685Y695211D01*
X1187375Y695830D01*
D02*
G37*
G36*
X1734680Y693110D02*
X1732420D01*
X1730238Y692525D01*
X1728282Y691396D01*
X1726684Y689798D01*
X1725555Y687842D01*
X1724970Y685660D01*
Y683400D01*
X1725555Y681218D01*
X1726684Y679262D01*
X1728282Y677664D01*
X1730238Y676535D01*
X1732420Y675950D01*
X1734680D01*
X1736862Y676535D01*
X1738818Y677664D01*
X1740416Y679262D01*
X1741545Y681218D01*
X1742130Y683400D01*
Y685660D01*
X1741545Y687842D01*
X1740416Y689798D01*
X1738818Y691396D01*
X1736862Y692525D01*
X1734680Y693110D01*
D02*
G37*
G36*
X1187450Y675810D02*
Y668020D01*
X1195240D01*
X1194641Y670255D01*
X1193446Y672325D01*
X1191755Y674016D01*
X1189685Y675211D01*
X1187450Y675810D01*
D02*
G37*
G36*
X1184910D02*
X1182675Y675211D01*
X1180605Y674016D01*
X1178914Y672325D01*
X1177719Y670255D01*
X1177120Y668020D01*
X1184910D01*
Y675810D01*
D02*
G37*
G36*
X1309370Y921602D02*
X1243330D01*
X1241546Y921247D01*
X1240034Y920236D01*
X1226159Y906362D01*
X1193973D01*
X1193446Y907275D01*
X1191755Y908966D01*
X1189685Y910161D01*
X1187375Y910780D01*
X1184985D01*
X1182675Y910161D01*
X1180605Y908966D01*
X1178914Y907275D01*
X1177719Y905205D01*
X1177100Y902895D01*
Y900505D01*
X1177719Y898195D01*
X1178914Y896125D01*
X1180605Y894434D01*
X1182675Y893239D01*
X1184985Y892620D01*
X1187375D01*
X1189685Y893239D01*
X1191755Y894434D01*
X1193446Y896125D01*
X1193973Y897038D01*
X1228090D01*
X1229874Y897393D01*
X1231386Y898404D01*
X1245261Y912278D01*
X1307439D01*
X1427898Y791819D01*
Y675474D01*
X1420270Y667845D01*
X1419917Y667940D01*
X1417263D01*
X1414699Y667253D01*
X1412401Y665926D01*
X1410524Y664049D01*
X1409197Y661751D01*
X1408510Y659187D01*
Y656533D01*
X1409197Y653969D01*
X1410524Y651671D01*
X1412401Y649794D01*
X1414699Y648467D01*
X1417263Y647780D01*
X1419917D01*
X1422481Y648467D01*
X1424779Y649794D01*
X1426656Y651671D01*
X1427983Y653969D01*
X1428670Y656533D01*
Y659187D01*
X1427983Y661751D01*
X1427755Y662146D01*
X1435856Y670247D01*
X1436867Y671759D01*
X1437222Y673543D01*
Y793750D01*
X1436867Y795534D01*
X1435856Y797046D01*
X1312666Y920236D01*
X1311154Y921247D01*
X1310858Y921306D01*
X1309370Y921602D01*
D02*
G37*
G36*
X1195240Y665480D02*
X1187450D01*
Y657690D01*
X1189685Y658289D01*
X1191755Y659484D01*
X1193446Y661175D01*
X1194641Y663245D01*
X1195240Y665480D01*
D02*
G37*
G36*
X1184910D02*
X1177120D01*
X1177719Y663245D01*
X1178914Y661175D01*
X1180605Y659484D01*
X1182675Y658289D01*
X1184910Y657690D01*
Y665480D01*
D02*
G37*
G36*
X1742130Y673110D02*
X1724970D01*
Y655950D01*
X1742130D01*
Y673110D01*
D02*
G37*
G36*
X1352470Y667940D02*
X1332310D01*
Y647780D01*
X1352470D01*
Y667940D01*
D02*
G37*
G36*
X1401980Y807720D02*
X1399640D01*
X1397379Y807114D01*
X1395351Y805944D01*
X1393696Y804289D01*
X1392526Y802261D01*
X1391920Y800000D01*
Y797660D01*
X1392526Y795399D01*
X1393696Y793371D01*
X1395351Y791716D01*
X1396148Y791256D01*
Y780441D01*
X1300994Y685286D01*
X1299983Y683774D01*
X1299628Y681990D01*
Y648970D01*
X1299983Y647186D01*
X1300994Y645674D01*
X1317504Y629164D01*
X1319016Y628153D01*
X1320800Y627798D01*
X1333442D01*
X1334324Y626271D01*
X1336201Y624394D01*
X1338499Y623067D01*
X1341063Y622380D01*
X1343717D01*
X1346281Y623067D01*
X1348579Y624394D01*
X1350456Y626271D01*
X1351783Y628569D01*
X1352470Y631133D01*
Y633787D01*
X1351783Y636351D01*
X1350456Y638649D01*
X1348579Y640526D01*
X1346281Y641853D01*
X1343717Y642540D01*
X1341063D01*
X1338499Y641853D01*
X1336201Y640526D01*
X1334324Y638649D01*
X1333442Y637122D01*
X1322731D01*
X1308952Y650901D01*
Y680059D01*
X1404106Y775214D01*
X1405117Y776726D01*
X1405472Y778510D01*
Y791256D01*
X1406269Y791716D01*
X1407924Y793371D01*
X1409094Y795399D01*
X1409700Y797660D01*
Y800000D01*
X1409094Y802261D01*
X1407924Y804289D01*
X1406269Y805944D01*
X1404241Y807114D01*
X1401980Y807720D01*
D02*
G37*
G36*
X1639570Y605763D02*
Y598170D01*
X1647163D01*
X1646584Y600331D01*
X1645414Y602359D01*
X1643759Y604014D01*
X1641731Y605184D01*
X1639570Y605763D01*
D02*
G37*
G36*
X1637030D02*
X1634869Y605184D01*
X1632841Y604014D01*
X1631186Y602359D01*
X1630016Y600331D01*
X1629437Y598170D01*
X1637030D01*
Y605763D01*
D02*
G37*
G36*
X1647163Y595630D02*
X1639570D01*
Y588037D01*
X1641731Y588616D01*
X1643759Y589786D01*
X1645414Y591441D01*
X1646584Y593469D01*
X1647163Y595630D01*
D02*
G37*
G36*
X1637030D02*
X1629437D01*
X1630016Y593469D01*
X1631186Y591441D01*
X1632841Y589786D01*
X1634869Y588616D01*
X1637030Y588037D01*
Y595630D01*
D02*
G37*
G36*
X1195260Y597720D02*
X1177100D01*
Y579560D01*
X1195260D01*
Y597720D01*
D02*
G37*
G36*
X1734745Y597090D02*
X1732355D01*
X1730045Y596471D01*
X1727975Y595276D01*
X1726284Y593585D01*
X1725757Y592672D01*
X1719260D01*
X1717476Y592317D01*
X1715964Y591306D01*
X1699549Y574892D01*
X1431951D01*
X1428213Y578629D01*
X1428670Y580333D01*
Y582987D01*
X1427983Y585551D01*
X1426656Y587849D01*
X1424779Y589726D01*
X1422481Y591053D01*
X1419917Y591740D01*
X1417263D01*
X1414699Y591053D01*
X1412401Y589726D01*
X1410524Y587849D01*
X1409197Y585551D01*
X1408510Y582987D01*
Y580333D01*
X1409197Y577769D01*
X1410524Y575471D01*
X1412401Y573594D01*
X1414699Y572267D01*
X1417263Y571580D01*
X1419917D01*
X1421621Y572037D01*
X1426724Y566934D01*
X1428236Y565923D01*
X1430020Y565568D01*
X1701480D01*
X1703264Y565923D01*
X1704776Y566934D01*
X1721191Y583348D01*
X1725757D01*
X1726284Y582435D01*
X1727975Y580744D01*
X1730045Y579549D01*
X1732355Y578930D01*
X1734745D01*
X1737055Y579549D01*
X1739125Y580744D01*
X1740816Y582435D01*
X1742011Y584505D01*
X1742630Y586815D01*
Y589205D01*
X1742011Y591515D01*
X1740816Y593585D01*
X1739125Y595276D01*
X1737055Y596471D01*
X1734745Y597090D01*
D02*
G37*
G36*
X1343717Y591740D02*
X1341063D01*
X1338499Y591053D01*
X1336201Y589726D01*
X1334324Y587849D01*
X1332997Y585551D01*
X1332310Y582987D01*
Y580333D01*
X1332997Y577769D01*
X1334324Y575471D01*
X1336201Y573594D01*
X1338499Y572267D01*
X1341063Y571580D01*
X1343717D01*
X1346281Y572267D01*
X1348579Y573594D01*
X1350456Y575471D01*
X1351783Y577769D01*
X1352470Y580333D01*
Y582987D01*
X1351783Y585551D01*
X1350456Y587849D01*
X1348579Y589726D01*
X1346281Y591053D01*
X1343717Y591740D01*
D02*
G37*
G36*
X1187375Y577720D02*
X1184985D01*
X1182675Y577101D01*
X1180605Y575906D01*
X1178914Y574215D01*
X1177719Y572145D01*
X1177100Y569835D01*
Y567445D01*
X1177719Y565135D01*
X1178914Y563065D01*
X1180605Y561374D01*
X1182675Y560179D01*
X1184985Y559560D01*
X1187375D01*
X1189685Y560179D01*
X1191755Y561374D01*
X1193446Y563065D01*
X1194641Y565135D01*
X1195260Y567445D01*
Y569835D01*
X1194641Y572145D01*
X1193446Y574215D01*
X1191755Y575906D01*
X1189685Y577101D01*
X1187375Y577720D01*
D02*
G37*
G36*
X1742630Y577090D02*
X1724470D01*
Y558930D01*
X1742630D01*
Y577090D01*
D02*
G37*
G36*
X1187450Y557700D02*
Y549910D01*
X1195240D01*
X1194641Y552145D01*
X1193446Y554215D01*
X1191755Y555906D01*
X1189685Y557101D01*
X1187450Y557700D01*
D02*
G37*
G36*
X1184910D02*
X1182675Y557101D01*
X1180605Y555906D01*
X1178914Y554215D01*
X1177719Y552145D01*
X1177120Y549910D01*
X1184910D01*
Y557700D01*
D02*
G37*
G36*
X1343717Y566340D02*
X1341063D01*
X1338499Y565653D01*
X1336201Y564326D01*
X1334324Y562449D01*
X1332997Y560151D01*
X1332310Y557587D01*
Y554933D01*
X1332997Y552369D01*
X1334324Y550071D01*
X1336201Y548194D01*
X1338499Y546867D01*
X1341063Y546180D01*
X1343717D01*
X1346281Y546867D01*
X1348579Y548194D01*
X1350456Y550071D01*
X1351783Y552369D01*
X1352470Y554933D01*
Y557587D01*
X1351783Y560151D01*
X1350456Y562449D01*
X1348579Y564326D01*
X1346281Y565653D01*
X1343717Y566340D01*
D02*
G37*
G36*
X1195240Y547370D02*
X1187450D01*
Y539580D01*
X1189685Y540179D01*
X1191755Y541374D01*
X1193446Y543065D01*
X1194641Y545135D01*
X1195240Y547370D01*
D02*
G37*
G36*
X1184910D02*
X1177120D01*
X1177719Y545135D01*
X1178914Y543065D01*
X1180605Y541374D01*
X1182675Y540179D01*
X1184910Y539580D01*
Y547370D01*
D02*
G37*
G36*
X1419917Y540940D02*
X1417263D01*
X1414699Y540253D01*
X1412401Y538926D01*
X1410524Y537049D01*
X1409642Y535522D01*
X1400649D01*
X1398865Y535167D01*
X1397353Y534156D01*
X1379204Y516007D01*
X1378193Y514495D01*
X1377838Y512711D01*
Y315371D01*
X1367129Y304662D01*
X1223551D01*
X1194987Y333226D01*
X1195260Y334245D01*
Y336635D01*
X1194641Y338945D01*
X1193446Y341015D01*
X1191755Y342706D01*
X1189685Y343901D01*
X1187375Y344520D01*
X1184985D01*
X1182675Y343901D01*
X1180605Y342706D01*
X1178914Y341015D01*
X1177719Y338945D01*
X1177100Y336635D01*
Y334245D01*
X1177719Y331935D01*
X1178914Y329865D01*
X1180605Y328174D01*
X1182675Y326979D01*
X1184985Y326360D01*
X1187375D01*
X1188394Y326633D01*
X1218324Y296704D01*
X1219836Y295693D01*
X1221620Y295338D01*
X1369060D01*
X1370844Y295693D01*
X1372356Y296704D01*
X1385796Y310144D01*
X1386807Y311656D01*
X1387162Y313440D01*
Y510780D01*
X1402580Y526198D01*
X1409642D01*
X1410524Y524671D01*
X1412401Y522794D01*
X1414699Y521467D01*
X1417263Y520780D01*
X1419917D01*
X1422481Y521467D01*
X1424779Y522794D01*
X1426656Y524671D01*
X1427983Y526969D01*
X1428670Y529533D01*
Y532187D01*
X1427983Y534751D01*
X1426656Y537049D01*
X1424779Y538926D01*
X1422481Y540253D01*
X1419917Y540940D01*
D02*
G37*
G36*
X1343717D02*
X1341063D01*
X1338499Y540253D01*
X1336201Y538926D01*
X1334324Y537049D01*
X1332997Y534751D01*
X1332310Y532187D01*
Y529533D01*
X1332997Y526969D01*
X1334324Y524671D01*
X1336201Y522794D01*
X1338499Y521467D01*
X1341063Y520780D01*
X1343717D01*
X1346281Y521467D01*
X1348579Y522794D01*
X1350456Y524671D01*
X1351783Y526969D01*
X1352470Y529533D01*
Y532187D01*
X1351783Y534751D01*
X1350456Y537049D01*
X1348579Y538926D01*
X1346281Y540253D01*
X1343717Y540940D01*
D02*
G37*
G36*
X1419917Y515540D02*
X1419860D01*
Y506730D01*
X1428670D01*
Y506787D01*
X1427983Y509351D01*
X1426656Y511649D01*
X1424779Y513526D01*
X1422481Y514853D01*
X1419917Y515540D01*
D02*
G37*
G36*
X1417320D02*
X1417263D01*
X1414699Y514853D01*
X1412401Y513526D01*
X1410524Y511649D01*
X1409197Y509351D01*
X1408510Y506787D01*
Y506730D01*
X1417320D01*
Y515540D01*
D02*
G37*
G36*
X1282700Y509243D02*
Y501650D01*
X1290293D01*
X1289714Y503811D01*
X1288544Y505839D01*
X1286889Y507494D01*
X1284861Y508664D01*
X1282700Y509243D01*
D02*
G37*
G36*
X1280160D02*
X1277999Y508664D01*
X1275971Y507494D01*
X1274316Y505839D01*
X1273146Y503811D01*
X1272567Y501650D01*
X1280160D01*
Y509243D01*
D02*
G37*
G36*
X1638114Y507787D02*
Y500194D01*
X1645707D01*
X1645128Y502355D01*
X1643957Y504382D01*
X1642302Y506037D01*
X1640275Y507208D01*
X1638114Y507787D01*
D02*
G37*
G36*
X1635574D02*
X1633412Y507208D01*
X1631385Y506037D01*
X1629730Y504382D01*
X1628559Y502355D01*
X1627980Y500194D01*
X1635574D01*
Y507787D01*
D02*
G37*
G36*
X1428670Y504190D02*
X1419860D01*
Y495380D01*
X1419917D01*
X1422481Y496067D01*
X1424779Y497394D01*
X1426656Y499271D01*
X1427983Y501569D01*
X1428670Y504133D01*
Y504190D01*
D02*
G37*
G36*
X1417320D02*
X1408510D01*
Y504133D01*
X1409197Y501569D01*
X1410524Y499271D01*
X1412401Y497394D01*
X1414699Y496067D01*
X1417263Y495380D01*
X1417320D01*
Y504190D01*
D02*
G37*
G36*
X1343717Y515540D02*
X1341063D01*
X1338499Y514853D01*
X1336201Y513526D01*
X1334324Y511649D01*
X1332997Y509351D01*
X1332310Y506787D01*
Y504133D01*
X1332997Y501569D01*
X1334324Y499271D01*
X1336201Y497394D01*
X1338499Y496067D01*
X1341063Y495380D01*
X1343717D01*
X1346281Y496067D01*
X1348579Y497394D01*
X1350456Y499271D01*
X1351783Y501569D01*
X1352470Y504133D01*
Y506787D01*
X1351783Y509351D01*
X1350456Y511649D01*
X1348579Y513526D01*
X1346281Y514853D01*
X1343717Y515540D01*
D02*
G37*
G36*
X1290293Y499110D02*
X1282700D01*
Y491517D01*
X1284861Y492096D01*
X1286889Y493266D01*
X1288544Y494921D01*
X1289714Y496949D01*
X1290293Y499110D01*
D02*
G37*
G36*
X1280160D02*
X1272567D01*
X1273146Y496949D01*
X1274316Y494921D01*
X1275971Y493266D01*
X1277999Y492096D01*
X1280160Y491517D01*
Y499110D01*
D02*
G37*
G36*
X1645707Y497654D02*
X1638114D01*
Y490060D01*
X1640275Y490639D01*
X1642302Y491810D01*
X1643957Y493465D01*
X1645128Y495492D01*
X1645707Y497654D01*
D02*
G37*
G36*
X1635574D02*
X1627980D01*
X1628559Y495492D01*
X1629730Y493465D01*
X1631385Y491810D01*
X1633412Y490639D01*
X1635574Y490060D01*
Y497654D01*
D02*
G37*
G36*
X1521460Y494003D02*
Y486410D01*
X1529053D01*
X1528474Y488571D01*
X1527304Y490599D01*
X1525649Y492254D01*
X1523621Y493424D01*
X1521460Y494003D01*
D02*
G37*
G36*
X1518920D02*
X1516759Y493424D01*
X1514731Y492254D01*
X1513076Y490599D01*
X1511906Y488571D01*
X1511327Y486410D01*
X1518920D01*
Y494003D01*
D02*
G37*
G36*
X1419917Y566340D02*
X1417263D01*
X1414699Y565653D01*
X1412401Y564326D01*
X1410524Y562449D01*
X1409197Y560151D01*
X1408510Y557587D01*
Y554933D01*
X1409197Y552369D01*
X1410524Y550071D01*
X1412401Y548194D01*
X1414699Y546867D01*
X1417263Y546180D01*
X1419917D01*
X1422481Y546867D01*
X1424779Y548194D01*
X1426656Y550071D01*
X1427538Y551598D01*
X1552549D01*
X1609508Y494639D01*
Y481330D01*
X1609863Y479546D01*
X1610874Y478034D01*
X1618494Y470414D01*
X1620006Y469403D01*
X1621790Y469048D01*
X1678940D01*
X1680724Y469403D01*
X1682236Y470414D01*
X1698331Y486508D01*
X1725757D01*
X1726284Y485595D01*
X1727975Y483904D01*
X1730045Y482709D01*
X1732355Y482090D01*
X1734745D01*
X1737055Y482709D01*
X1739125Y483904D01*
X1740816Y485595D01*
X1742011Y487665D01*
X1742630Y489975D01*
Y492365D01*
X1742011Y494675D01*
X1740816Y496745D01*
X1739125Y498436D01*
X1737055Y499631D01*
X1734745Y500250D01*
X1732355D01*
X1730045Y499631D01*
X1727975Y498436D01*
X1726284Y496745D01*
X1725757Y495832D01*
X1696400D01*
X1694616Y495477D01*
X1693104Y494466D01*
X1677009Y478372D01*
X1623721D01*
X1618832Y483261D01*
Y496570D01*
X1618477Y498354D01*
X1617466Y499866D01*
X1557776Y559556D01*
X1556264Y560567D01*
X1554480Y560922D01*
X1427538D01*
X1426656Y562449D01*
X1424779Y564326D01*
X1422481Y565653D01*
X1419917Y566340D01*
D02*
G37*
G36*
X1343717Y490140D02*
X1343660D01*
Y481330D01*
X1352470D01*
Y481387D01*
X1351783Y483951D01*
X1350456Y486249D01*
X1348579Y488126D01*
X1346281Y489453D01*
X1343717Y490140D01*
D02*
G37*
G36*
X1341120D02*
X1341063D01*
X1338499Y489453D01*
X1336201Y488126D01*
X1334324Y486249D01*
X1332997Y483951D01*
X1332310Y481387D01*
Y481330D01*
X1341120D01*
Y490140D01*
D02*
G37*
G36*
X1529053Y483870D02*
X1521460D01*
Y476277D01*
X1523621Y476856D01*
X1525649Y478026D01*
X1527304Y479681D01*
X1528474Y481709D01*
X1529053Y483870D01*
D02*
G37*
G36*
X1518920D02*
X1511327D01*
X1511906Y481709D01*
X1513076Y479681D01*
X1514731Y478026D01*
X1516759Y476856D01*
X1518920Y476277D01*
Y483870D01*
D02*
G37*
G36*
X1419917Y490140D02*
X1417263D01*
X1414699Y489453D01*
X1412401Y488126D01*
X1410524Y486249D01*
X1409197Y483951D01*
X1408510Y481387D01*
Y478733D01*
X1409197Y476169D01*
X1410524Y473871D01*
X1412401Y471994D01*
X1414699Y470667D01*
X1417263Y469980D01*
X1419917D01*
X1422481Y470667D01*
X1424779Y471994D01*
X1426656Y473871D01*
X1427983Y476169D01*
X1428670Y478733D01*
Y481387D01*
X1427983Y483951D01*
X1426656Y486249D01*
X1424779Y488126D01*
X1422481Y489453D01*
X1419917Y490140D01*
D02*
G37*
G36*
X1352470Y478790D02*
X1343660D01*
Y469980D01*
X1343717D01*
X1346281Y470667D01*
X1348579Y471994D01*
X1350456Y473871D01*
X1351783Y476169D01*
X1352470Y478733D01*
Y478790D01*
D02*
G37*
G36*
X1341120D02*
X1332310D01*
Y478733D01*
X1332997Y476169D01*
X1334324Y473871D01*
X1336201Y471994D01*
X1338499Y470667D01*
X1341063Y469980D01*
X1341120D01*
Y478790D01*
D02*
G37*
G36*
X1195260Y480880D02*
X1177100D01*
Y462720D01*
X1195260D01*
Y480880D01*
D02*
G37*
G36*
X1742630Y480250D02*
X1724470D01*
Y462090D01*
X1742630D01*
Y480250D01*
D02*
G37*
G36*
X1419917Y464740D02*
X1417263D01*
X1414699Y464053D01*
X1412401Y462726D01*
X1410524Y460849D01*
X1409197Y458551D01*
X1408510Y455987D01*
Y453333D01*
X1409197Y450769D01*
X1410524Y448471D01*
X1412401Y446594D01*
X1414699Y445267D01*
X1417263Y444580D01*
X1419917D01*
X1422481Y445267D01*
X1424779Y446594D01*
X1426656Y448471D01*
X1427983Y450769D01*
X1428670Y453333D01*
Y455987D01*
X1427983Y458551D01*
X1426656Y460849D01*
X1424779Y462726D01*
X1422481Y464053D01*
X1419917Y464740D01*
D02*
G37*
G36*
X1343717D02*
X1341063D01*
X1338499Y464053D01*
X1336201Y462726D01*
X1334324Y460849D01*
X1332997Y458551D01*
X1332310Y455987D01*
Y453333D01*
X1332997Y450769D01*
X1334324Y448471D01*
X1336201Y446594D01*
X1338499Y445267D01*
X1341063Y444580D01*
X1343717D01*
X1346281Y445267D01*
X1348579Y446594D01*
X1350456Y448471D01*
X1351783Y450769D01*
X1352470Y453333D01*
Y455987D01*
X1351783Y458551D01*
X1350456Y460849D01*
X1348579Y462726D01*
X1346281Y464053D01*
X1343717Y464740D01*
D02*
G37*
G36*
X1250950Y450823D02*
Y443230D01*
X1258543D01*
X1257964Y445391D01*
X1256794Y447419D01*
X1255139Y449074D01*
X1253111Y450244D01*
X1250950Y450823D01*
D02*
G37*
G36*
X1248410D02*
X1246249Y450244D01*
X1244221Y449074D01*
X1242566Y447419D01*
X1241396Y445391D01*
X1240817Y443230D01*
X1248410D01*
Y450823D01*
D02*
G37*
G36*
X1187375Y460880D02*
X1184985D01*
X1182675Y460261D01*
X1180605Y459066D01*
X1178914Y457375D01*
X1177719Y455305D01*
X1177100Y452995D01*
Y450605D01*
X1177719Y448295D01*
X1178914Y446225D01*
X1180605Y444534D01*
X1182675Y443339D01*
X1184985Y442720D01*
X1187375D01*
X1189685Y443339D01*
X1191755Y444534D01*
X1193446Y446225D01*
X1194641Y448295D01*
X1195260Y450605D01*
Y452995D01*
X1194641Y455305D01*
X1193446Y457375D01*
X1191755Y459066D01*
X1189685Y460261D01*
X1187375Y460880D01*
D02*
G37*
G36*
X1258543Y440690D02*
X1250950D01*
Y433097D01*
X1253111Y433676D01*
X1255139Y434846D01*
X1256794Y436501D01*
X1257964Y438529D01*
X1258543Y440690D01*
D02*
G37*
G36*
X1248410D02*
X1240817D01*
X1241396Y438529D01*
X1242566Y436501D01*
X1244221Y434846D01*
X1246249Y433676D01*
X1248410Y433097D01*
Y440690D01*
D02*
G37*
G36*
X1187450Y440860D02*
Y433070D01*
X1195240D01*
X1194641Y435305D01*
X1193446Y437375D01*
X1191755Y439066D01*
X1189685Y440261D01*
X1187450Y440860D01*
D02*
G37*
G36*
X1184910D02*
X1182675Y440261D01*
X1180605Y439066D01*
X1178914Y437375D01*
X1177719Y435305D01*
X1177120Y433070D01*
X1184910D01*
Y440860D01*
D02*
G37*
G36*
X1195240Y430530D02*
X1187450D01*
Y422740D01*
X1189685Y423339D01*
X1191755Y424534D01*
X1193446Y426225D01*
X1194641Y428295D01*
X1195240Y430530D01*
D02*
G37*
G36*
X1184910D02*
X1177120D01*
X1177719Y428295D01*
X1178914Y426225D01*
X1180605Y424534D01*
X1182675Y423339D01*
X1184910Y422740D01*
Y430530D01*
D02*
G37*
G36*
X1419917Y439340D02*
X1417263D01*
X1414699Y438653D01*
X1412401Y437326D01*
X1410524Y435449D01*
X1409197Y433151D01*
X1408510Y430587D01*
Y427933D01*
X1409197Y425369D01*
X1410524Y423071D01*
X1412401Y421194D01*
X1414699Y419867D01*
X1417263Y419180D01*
X1419917D01*
X1422481Y419867D01*
X1424779Y421194D01*
X1426656Y423071D01*
X1427983Y425369D01*
X1428670Y427933D01*
Y430587D01*
X1427983Y433151D01*
X1426656Y435449D01*
X1424779Y437326D01*
X1422481Y438653D01*
X1419917Y439340D01*
D02*
G37*
G36*
X1343717D02*
X1341063D01*
X1338499Y438653D01*
X1336201Y437326D01*
X1334324Y435449D01*
X1332997Y433151D01*
X1332310Y430587D01*
Y427933D01*
X1332997Y425369D01*
X1334324Y423071D01*
X1336201Y421194D01*
X1338499Y419867D01*
X1341063Y419180D01*
X1343717D01*
X1346281Y419867D01*
X1348579Y421194D01*
X1350456Y423071D01*
X1351783Y425369D01*
X1352470Y427933D01*
Y430587D01*
X1351783Y433151D01*
X1350456Y435449D01*
X1348579Y437326D01*
X1346281Y438653D01*
X1343717Y439340D01*
D02*
G37*
G36*
X1575000Y453885D02*
X1545000D01*
X1543513Y453589D01*
X1542253Y452747D01*
X1537253Y447747D01*
X1536411Y446487D01*
X1536115Y445000D01*
Y415000D01*
X1536411Y413513D01*
X1537253Y412253D01*
X1542253Y407253D01*
X1543513Y406411D01*
X1545000Y406115D01*
X1575000D01*
X1576487Y406411D01*
X1577747Y407253D01*
X1582747Y412253D01*
X1583589Y413513D01*
X1583885Y415000D01*
Y445000D01*
X1583589Y446487D01*
X1582747Y447747D01*
X1577747Y452747D01*
X1576487Y453589D01*
X1575000Y453885D01*
D02*
G37*
G36*
X1733550Y403352D02*
Y396080D01*
X1740822D01*
X1740275Y398122D01*
X1739146Y400078D01*
X1737548Y401676D01*
X1735592Y402805D01*
X1733550Y403352D01*
D02*
G37*
G36*
X1731010D02*
X1728968Y402805D01*
X1727012Y401676D01*
X1725414Y400078D01*
X1724285Y398122D01*
X1723738Y396080D01*
X1731010D01*
Y403352D01*
D02*
G37*
G36*
X1419917Y413940D02*
X1417263D01*
X1414699Y413253D01*
X1412401Y411926D01*
X1410524Y410049D01*
X1409197Y407751D01*
X1408510Y405187D01*
Y402533D01*
X1409197Y399969D01*
X1410524Y397671D01*
X1412401Y395794D01*
X1414699Y394467D01*
X1417263Y393780D01*
X1419917D01*
X1422481Y394467D01*
X1424779Y395794D01*
X1426656Y397671D01*
X1427983Y399969D01*
X1428670Y402533D01*
Y405187D01*
X1427983Y407751D01*
X1426656Y410049D01*
X1424779Y411926D01*
X1422481Y413253D01*
X1419917Y413940D01*
D02*
G37*
G36*
X1343717D02*
X1341063D01*
X1338499Y413253D01*
X1336201Y411926D01*
X1334324Y410049D01*
X1332997Y407751D01*
X1332310Y405187D01*
Y402533D01*
X1332997Y399969D01*
X1334324Y397671D01*
X1336201Y395794D01*
X1338499Y394467D01*
X1341063Y393780D01*
X1343717D01*
X1346281Y394467D01*
X1348579Y395794D01*
X1350456Y397671D01*
X1351783Y399969D01*
X1352470Y402533D01*
Y405187D01*
X1351783Y407751D01*
X1350456Y410049D01*
X1348579Y411926D01*
X1346281Y413253D01*
X1343717Y413940D01*
D02*
G37*
G36*
X1740822Y393540D02*
X1733550D01*
Y386268D01*
X1735592Y386815D01*
X1737548Y387944D01*
X1739146Y389542D01*
X1740275Y391498D01*
X1740822Y393540D01*
D02*
G37*
G36*
X1731010D02*
X1723738D01*
X1724285Y391498D01*
X1725414Y389542D01*
X1727012Y387944D01*
X1728968Y386815D01*
X1731010Y386268D01*
Y393540D01*
D02*
G37*
G36*
X1419917Y388540D02*
X1417263D01*
X1414699Y387853D01*
X1412401Y386526D01*
X1410524Y384649D01*
X1409197Y382351D01*
X1408510Y379787D01*
Y377133D01*
X1409197Y374569D01*
X1410524Y372271D01*
X1412401Y370394D01*
X1414699Y369067D01*
X1417263Y368380D01*
X1419917D01*
X1422481Y369067D01*
X1424779Y370394D01*
X1426656Y372271D01*
X1427983Y374569D01*
X1428670Y377133D01*
Y379787D01*
X1427983Y382351D01*
X1426656Y384649D01*
X1424779Y386526D01*
X1422481Y387853D01*
X1419917Y388540D01*
D02*
G37*
G36*
X1343717D02*
X1341063D01*
X1338499Y387853D01*
X1336201Y386526D01*
X1334324Y384649D01*
X1332997Y382351D01*
X1332310Y379787D01*
Y377133D01*
X1332997Y374569D01*
X1334324Y372271D01*
X1336201Y370394D01*
X1338499Y369067D01*
X1341063Y368380D01*
X1343717D01*
X1346281Y369067D01*
X1348579Y370394D01*
X1350456Y372271D01*
X1351783Y374569D01*
X1352470Y377133D01*
Y379787D01*
X1351783Y382351D01*
X1350456Y384649D01*
X1348579Y386526D01*
X1346281Y387853D01*
X1343717Y388540D01*
D02*
G37*
G36*
X1734680Y383230D02*
X1732420D01*
X1730238Y382645D01*
X1728282Y381516D01*
X1726684Y379918D01*
X1725555Y377962D01*
X1724970Y375780D01*
Y373520D01*
X1725555Y371338D01*
X1726684Y369382D01*
X1728282Y367784D01*
X1730238Y366655D01*
X1732420Y366070D01*
X1734680D01*
X1736862Y366655D01*
X1738818Y367784D01*
X1740416Y369382D01*
X1741545Y371338D01*
X1742130Y373520D01*
Y375780D01*
X1741545Y377962D01*
X1740416Y379918D01*
X1738818Y381516D01*
X1736862Y382645D01*
X1734680Y383230D01*
D02*
G37*
G36*
X1195260Y364520D02*
X1177100D01*
Y346360D01*
X1195260D01*
Y364520D01*
D02*
G37*
G36*
X1734680Y363230D02*
X1732420D01*
X1730238Y362645D01*
X1728282Y361516D01*
X1726684Y359918D01*
X1725555Y357962D01*
X1724970Y355780D01*
Y353520D01*
X1725555Y351338D01*
X1726684Y349382D01*
X1728282Y347784D01*
X1730238Y346655D01*
X1732420Y346070D01*
X1734680D01*
X1736862Y346655D01*
X1738818Y347784D01*
X1740416Y349382D01*
X1741545Y351338D01*
X1742130Y353520D01*
Y355780D01*
X1741545Y357962D01*
X1740416Y359918D01*
X1738818Y361516D01*
X1736862Y362645D01*
X1734680Y363230D01*
D02*
G37*
G36*
X1419917Y363140D02*
X1417263D01*
X1414699Y362453D01*
X1412401Y361126D01*
X1410524Y359249D01*
X1409197Y356951D01*
X1408510Y354387D01*
Y351733D01*
X1409197Y349169D01*
X1410524Y346871D01*
X1412401Y344994D01*
X1414699Y343667D01*
X1417263Y342980D01*
X1419917D01*
X1422481Y343667D01*
X1424779Y344994D01*
X1426656Y346871D01*
X1427983Y349169D01*
X1428670Y351733D01*
Y354387D01*
X1427983Y356951D01*
X1426656Y359249D01*
X1424779Y361126D01*
X1422481Y362453D01*
X1419917Y363140D01*
D02*
G37*
G36*
X1343717D02*
X1341063D01*
X1338499Y362453D01*
X1336201Y361126D01*
X1334324Y359249D01*
X1332997Y356951D01*
X1332310Y354387D01*
Y351733D01*
X1332997Y349169D01*
X1334324Y346871D01*
X1336201Y344994D01*
X1338499Y343667D01*
X1341063Y342980D01*
X1343717D01*
X1346281Y343667D01*
X1348579Y344994D01*
X1350456Y346871D01*
X1351783Y349169D01*
X1352470Y351733D01*
Y354387D01*
X1351783Y356951D01*
X1350456Y359249D01*
X1348579Y361126D01*
X1346281Y362453D01*
X1343717Y363140D01*
D02*
G37*
G36*
X1282700Y335253D02*
Y327660D01*
X1290293D01*
X1289714Y329821D01*
X1288544Y331849D01*
X1286889Y333504D01*
X1284861Y334674D01*
X1282700Y335253D01*
D02*
G37*
G36*
X1280160D02*
X1277999Y334674D01*
X1275971Y333504D01*
X1274316Y331849D01*
X1273146Y329821D01*
X1272567Y327660D01*
X1280160D01*
Y335253D01*
D02*
G37*
G36*
X1742130Y343230D02*
X1724970D01*
Y326070D01*
X1742130D01*
Y343230D01*
D02*
G37*
G36*
X1419917Y337740D02*
X1417263D01*
X1414699Y337053D01*
X1412401Y335726D01*
X1410524Y333849D01*
X1409197Y331551D01*
X1408510Y328987D01*
Y326333D01*
X1409197Y323769D01*
X1410524Y321471D01*
X1412401Y319594D01*
X1414699Y318267D01*
X1417263Y317580D01*
X1419917D01*
X1422481Y318267D01*
X1424779Y319594D01*
X1426656Y321471D01*
X1427983Y323769D01*
X1428670Y326333D01*
Y328987D01*
X1427983Y331551D01*
X1426656Y333849D01*
X1424779Y335726D01*
X1422481Y337053D01*
X1419917Y337740D01*
D02*
G37*
G36*
X1343717D02*
X1341063D01*
X1338499Y337053D01*
X1336201Y335726D01*
X1334324Y333849D01*
X1332997Y331551D01*
X1332310Y328987D01*
Y326333D01*
X1332997Y323769D01*
X1334324Y321471D01*
X1336201Y319594D01*
X1338499Y318267D01*
X1341063Y317580D01*
X1343717D01*
X1346281Y318267D01*
X1348579Y319594D01*
X1350456Y321471D01*
X1351783Y323769D01*
X1352470Y326333D01*
Y328987D01*
X1351783Y331551D01*
X1350456Y333849D01*
X1348579Y335726D01*
X1346281Y337053D01*
X1343717Y337740D01*
D02*
G37*
G36*
X1290293Y325120D02*
X1282700D01*
Y317527D01*
X1284861Y318106D01*
X1286889Y319276D01*
X1288544Y320931D01*
X1289714Y322959D01*
X1290293Y325120D01*
D02*
G37*
G36*
X1280160D02*
X1272567D01*
X1273146Y322959D01*
X1274316Y320931D01*
X1275971Y319276D01*
X1277999Y318106D01*
X1280160Y317527D01*
Y325120D01*
D02*
G37*
%LPD*%
D50*
X1418590Y581660D02*
X1420586D01*
X1418590Y556260D02*
X1421021D01*
X1418590Y657860D02*
Y659573D01*
X1673860Y994410D02*
X1733550D01*
X1630925Y1010920D02*
X1657350D01*
X1673860Y994410D01*
D51*
X1221620Y300000D02*
X1369060D01*
X1186180Y335440D02*
X1221620Y300000D01*
X1369060D02*
X1382500Y313440D01*
X1400649Y530860D02*
X1418590D01*
X1382500Y512711D02*
X1400649Y530860D01*
X1382500Y313440D02*
Y512711D01*
X1289050Y640526D02*
Y690880D01*
X1380490Y782320D01*
X1322516Y607060D02*
X1342390D01*
X1289050Y640526D02*
X1322516Y607060D01*
X1304290Y648970D02*
X1320800Y632460D01*
X1304290Y648970D02*
Y681990D01*
X1400810Y778510D02*
Y798830D01*
X1304290Y681990D02*
X1400810Y778510D01*
X1320800Y632460D02*
X1342390D01*
X1418590Y581660D02*
X1430020Y570230D01*
X1701480D01*
X1421021Y556260D02*
X1554480D01*
X1614170Y481330D02*
Y496570D01*
X1554480Y556260D02*
X1614170Y496570D01*
X1418590Y632460D02*
X1440099D01*
X1446530Y638891D02*
Y795020D01*
X1440099Y632460D02*
X1446530Y638891D01*
X1432560Y673543D02*
Y793750D01*
X1243330Y916940D02*
X1309370D01*
X1432560Y793750D01*
X1701480Y570230D02*
X1719260Y588010D01*
X1733550D01*
X1418590Y659573D02*
X1432560Y673543D01*
X1446530Y795020D02*
X1484630Y833120D01*
X1460316Y632276D02*
Y789756D01*
X1489710Y819150D01*
X1600200D01*
X1611630Y807720D01*
X1605598Y833120D02*
X1677988Y905510D01*
X1707732D02*
X1720272Y918050D01*
X1677988Y905510D02*
X1707732D01*
X1708150Y807720D02*
X1722120Y821690D01*
X1611630Y807720D02*
X1708150D01*
X1722120Y821690D02*
X1733550D01*
X1720272Y918050D02*
X1733550D01*
X1484630Y833120D02*
X1605598D01*
X1614170Y481330D02*
X1621790Y473710D01*
X1678940D01*
X1418590Y607060D02*
X1435100D01*
X1460316Y632276D01*
X1678940Y473710D02*
X1696400Y491170D01*
X1733550D01*
X1186180Y901700D02*
X1228090D01*
X1243330Y916940D01*
D54*
X1186180Y921700D02*
D03*
Y588640D02*
D03*
Y355440D02*
D03*
X1733550Y898050D02*
D03*
X1186180Y471800D02*
D03*
Y823910D02*
D03*
Y706750D02*
D03*
X1733550Y568010D02*
D03*
Y471170D02*
D03*
Y801690D02*
D03*
D55*
X1186180Y901700D02*
D03*
Y548640D02*
D03*
Y568640D02*
D03*
Y335440D02*
D03*
X1733550Y918050D02*
D03*
X1186180Y451800D02*
D03*
Y431800D02*
D03*
Y803910D02*
D03*
Y783910D02*
D03*
Y686750D02*
D03*
Y666750D02*
D03*
X1733550Y588010D02*
D03*
Y491170D02*
D03*
Y821690D02*
D03*
D56*
X1560000Y876250D02*
D03*
X1295000Y794750D02*
D03*
X1560000Y430000D02*
D03*
D57*
X1342390Y327660D02*
D03*
Y632460D02*
D03*
Y607060D02*
D03*
Y581660D02*
D03*
Y556260D02*
D03*
Y530860D02*
D03*
Y505460D02*
D03*
Y480060D02*
D03*
Y454660D02*
D03*
Y429260D02*
D03*
Y403860D02*
D03*
Y378460D02*
D03*
Y353060D02*
D03*
X1418590Y327660D02*
D03*
Y353060D02*
D03*
Y378460D02*
D03*
Y403860D02*
D03*
Y429260D02*
D03*
Y454660D02*
D03*
Y480060D02*
D03*
Y505460D02*
D03*
Y530860D02*
D03*
Y556260D02*
D03*
Y581660D02*
D03*
Y607060D02*
D03*
Y632460D02*
D03*
Y657860D02*
D03*
D58*
X1342390D02*
D03*
D59*
X1408420Y1078790D02*
D03*
D60*
X1455420Y1108790D02*
D03*
Y1048790D02*
D03*
D61*
X1733550Y994410D02*
D03*
Y664530D02*
D03*
Y334650D02*
D03*
D62*
Y1014410D02*
D03*
Y1034410D02*
D03*
X1732280Y1054570D02*
D03*
X1733550Y684530D02*
D03*
Y704530D02*
D03*
X1732280Y724690D02*
D03*
X1733550Y354650D02*
D03*
Y374650D02*
D03*
X1732280Y394810D02*
D03*
D63*
X1249680Y441960D02*
D03*
X1380490Y782320D02*
D03*
X1400810Y798830D02*
D03*
X1520190Y485140D02*
D03*
X1636844Y498924D02*
D03*
X1281430Y326390D02*
D03*
Y891540D02*
D03*
X1638300Y918210D02*
D03*
Y596900D02*
D03*
Y830580D02*
D03*
X1630925Y1010920D02*
D03*
X1281430Y500380D02*
D03*
X1602740Y1010920D02*
D03*
X1300480Y972820D02*
D03*
X1192530Y1090930D02*
D03*
X1576070Y1066800D02*
D03*
M02*
