G04*
G04 #@! TF.GenerationSoftware,Altium Limited,Altium Designer,23.7.1 (13)*
G04*
G04 Layer_Color=8388736*
%FSLAX44Y44*%
%MOMM*%
G71*
G04*
G04 #@! TF.SameCoordinates,C51D150B-4951-4E74-93B8-B1EDFD191E36*
G04*
G04*
G04 #@! TF.FilePolarity,Negative*
G04*
G01*
G75*
%ADD18R,1.2500X0.6000*%
%ADD20R,1.3562X1.0546*%
%ADD27R,1.0546X1.3562*%
%ADD28R,1.7500X2.6500*%
%ADD29R,0.9000X1.2000*%
%ADD30R,1.9000X0.4000*%
%ADD31R,1.8032X1.6032*%
%ADD32R,1.4986X1.7526*%
%ADD33R,3.7032X1.8032*%
G04:AMPARAMS|DCode=34|XSize=1.1332mm|YSize=1.5132mm|CornerRadius=0.1714mm|HoleSize=0mm|Usage=FLASHONLY|Rotation=90.000|XOffset=0mm|YOffset=0mm|HoleType=Round|Shape=RoundedRectangle|*
%AMROUNDEDRECTD34*
21,1,1.1332,1.1705,0,0,90.0*
21,1,0.7905,1.5132,0,0,90.0*
1,1,0.3427,0.5853,0.3953*
1,1,0.3427,0.5853,-0.3953*
1,1,0.3427,-0.5853,-0.3953*
1,1,0.3427,-0.5853,0.3953*
%
%ADD34ROUNDEDRECTD34*%
G04:AMPARAMS|DCode=35|XSize=3.4432mm|YSize=1.5132mm|CornerRadius=0.1999mm|HoleSize=0mm|Usage=FLASHONLY|Rotation=90.000|XOffset=0mm|YOffset=0mm|HoleType=Round|Shape=RoundedRectangle|*
%AMROUNDEDRECTD35*
21,1,3.4432,1.1135,0,0,90.0*
21,1,3.0435,1.5132,0,0,90.0*
1,1,0.3997,0.5568,1.5218*
1,1,0.3997,0.5568,-1.5218*
1,1,0.3997,-0.5568,-1.5218*
1,1,0.3997,-0.5568,1.5218*
%
%ADD35ROUNDEDRECTD35*%
%ADD36R,1.5832X1.1232*%
%ADD37R,1.4032X1.6532*%
%ADD38R,1.5112X1.5112*%
%ADD39C,1.5112*%
%ADD40C,1.7272*%
%ADD41C,1.7112*%
%ADD42R,1.7112X1.7112*%
%ADD43O,1.7112X3.2192*%
%ADD44O,3.2192X1.7112*%
%ADD45R,1.4112X1.4112*%
%ADD46C,1.4112*%
%ADD47C,1.4732*%
D18*
X1460548Y471060D02*
D03*
X1460548Y489060D02*
D03*
D20*
X1304290Y485864D02*
D03*
Y500380D02*
D03*
X1495636Y485140D02*
D03*
Y470624D02*
D03*
D27*
X1269092Y972820D02*
D03*
X1283608D02*
D03*
D28*
X1366520Y1102270D02*
D03*
Y1059270D02*
D03*
D29*
X1623990Y1035050D02*
D03*
X1644990D02*
D03*
D30*
X1272540Y429960D02*
D03*
Y441960D02*
D03*
Y453960D02*
D03*
D31*
X1525270Y677940D02*
D03*
Y647940D02*
D03*
X1576070Y972030D02*
D03*
Y1002030D02*
D03*
Y648180D02*
D03*
Y678180D02*
D03*
D32*
X1690010Y1066420D02*
D03*
X1645010D02*
D03*
Y1145920D02*
D03*
X1690010D02*
D03*
D33*
X1214060Y1112520D02*
D03*
X1270060D02*
D03*
Y1033780D02*
D03*
X1214060D02*
D03*
D34*
X1601900Y1093430D02*
D03*
Y1116330D02*
D03*
Y1139230D02*
D03*
D35*
X1535000Y1116330D02*
D03*
D36*
X1304290Y451510D02*
D03*
Y432410D02*
D03*
X1525270Y595580D02*
D03*
Y614680D02*
D03*
X1576070Y596240D02*
D03*
Y615340D02*
D03*
D37*
X1525430Y1002030D02*
D03*
X1545430D02*
D03*
X1545590Y971550D02*
D03*
X1525590D02*
D03*
X1677510Y927100D02*
D03*
X1657510D02*
D03*
X1677510Y500380D02*
D03*
X1657510D02*
D03*
X1677510Y830580D02*
D03*
X1657510D02*
D03*
X1242220Y891540D02*
D03*
X1262220D02*
D03*
X1677510Y596900D02*
D03*
X1657510D02*
D03*
X1242060Y326390D02*
D03*
X1262060D02*
D03*
D38*
X1186180Y921700D02*
D03*
Y588640D02*
D03*
Y355440D02*
D03*
X1733550Y898050D02*
D03*
X1186180Y471800D02*
D03*
Y823910D02*
D03*
Y706750D02*
D03*
X1733550Y568010D02*
D03*
Y471170D02*
D03*
Y801690D02*
D03*
D39*
X1186180Y901700D02*
D03*
Y548640D02*
D03*
Y568640D02*
D03*
Y335440D02*
D03*
X1733550Y918050D02*
D03*
X1186180Y451800D02*
D03*
Y431800D02*
D03*
Y803910D02*
D03*
Y783910D02*
D03*
Y686750D02*
D03*
Y666750D02*
D03*
X1733550Y588010D02*
D03*
Y491170D02*
D03*
Y821690D02*
D03*
D40*
X1560000Y876250D02*
D03*
X1295000Y794750D02*
D03*
X1560000Y430000D02*
D03*
D41*
X1342390Y327660D02*
D03*
Y632460D02*
D03*
Y607060D02*
D03*
Y581660D02*
D03*
Y556260D02*
D03*
Y530860D02*
D03*
Y505460D02*
D03*
Y480060D02*
D03*
Y454660D02*
D03*
Y429260D02*
D03*
Y403860D02*
D03*
Y378460D02*
D03*
Y353060D02*
D03*
X1418590Y327660D02*
D03*
Y353060D02*
D03*
Y378460D02*
D03*
Y403860D02*
D03*
Y429260D02*
D03*
Y454660D02*
D03*
Y480060D02*
D03*
Y505460D02*
D03*
Y530860D02*
D03*
Y556260D02*
D03*
Y581660D02*
D03*
Y607060D02*
D03*
Y632460D02*
D03*
Y657860D02*
D03*
D42*
X1342390D02*
D03*
D43*
X1408420Y1078790D02*
D03*
D44*
X1455420Y1108790D02*
D03*
Y1048790D02*
D03*
D45*
X1733550Y994410D02*
D03*
Y664530D02*
D03*
Y334650D02*
D03*
D46*
Y1014410D02*
D03*
Y1034410D02*
D03*
X1732280Y1054570D02*
D03*
X1733550Y684530D02*
D03*
Y704530D02*
D03*
X1732280Y724690D02*
D03*
X1733550Y354650D02*
D03*
Y374650D02*
D03*
X1732280Y394810D02*
D03*
D47*
X1249680Y441960D02*
D03*
X1380490Y782320D02*
D03*
X1400810Y798830D02*
D03*
X1520190Y485140D02*
D03*
X1636844Y498924D02*
D03*
X1281430Y326390D02*
D03*
Y891540D02*
D03*
X1638300Y918210D02*
D03*
Y596900D02*
D03*
Y830580D02*
D03*
X1630925Y1010920D02*
D03*
X1281430Y500380D02*
D03*
X1602740Y1010920D02*
D03*
X1300480Y972820D02*
D03*
X1192530Y1090930D02*
D03*
X1576070Y1066800D02*
D03*
M02*
